<svg width="20" height="20" viewBox="0 0 20 20" fill="none" xmlns="http://www.w3.org/2000/svg">
<path fill-rule="evenodd" clip-rule="evenodd" d="M10 1.66663C5.39765 1.66663 1.66669 5.39759 1.66669 9.99996C1.66669 14.6023 5.39765 18.3333 10 18.3333C14.6024 18.3333 18.3334 14.6023 18.3334 9.99996C18.3334 7.78982 17.4554 5.67021 15.8926 4.1074C14.3298 2.5446 12.2102 1.66663 10 1.66663ZM10 16.6666C6.31812 16.6666 3.33335 13.6819 3.33335 9.99996C3.33335 6.31806 6.31812 3.33329 10 3.33329C13.6819 3.33329 16.6667 6.31806 16.6667 9.99996C16.6667 11.7681 15.9643 13.4638 14.7141 14.714C13.4638 15.9642 11.7681 16.6666 10 16.6666ZM12.6 7.07496C12.762 6.91615 13.0213 6.91615 13.1834 7.07496L13.6 7.51663C13.6789 7.59486 13.7233 7.70136 13.7233 7.81246C13.7233 7.92356 13.6789 8.03006 13.6 8.10829L8.91669 12.7916C8.84108 12.8722 8.73551 12.9179 8.62502 12.9179C8.51453 12.9179 8.40897 12.8722 8.33335 12.7916L6.37502 10.8166C6.29614 10.7384 6.25177 10.6319 6.25177 10.5208C6.25177 10.4097 6.29614 10.3032 6.37502 10.225L6.81669 9.78329C6.8923 9.70273 6.99787 9.65703 7.10835 9.65703C7.21884 9.65703 7.32441 9.70273 7.40002 9.78329L8.65002 11.025L12.6 7.07496Z" fill="white"/>
</svg>
