<svg width="20" height="20" viewBox="0 0 20 20" fill="none" xmlns="http://www.w3.org/2000/svg">
<path fill-rule="evenodd" clip-rule="evenodd" d="M9.99999 1.66663C5.39762 1.66663 1.66666 5.39759 1.66666 9.99996C1.66666 14.6023 5.39762 18.3333 9.99999 18.3333C14.6024 18.3333 18.3333 14.6023 18.3333 9.99996C18.3333 7.78982 17.4553 5.67021 15.8925 4.1074C14.3297 2.5446 12.2101 1.66663 9.99999 1.66663ZM9.99999 16.6666C6.31809 16.6666 3.33332 13.6819 3.33332 9.99996C3.33332 6.31806 6.31809 3.33329 9.99999 3.33329C13.6819 3.33329 16.6667 6.31806 16.6667 9.99996C16.6667 11.7681 15.9643 13.4638 14.714 14.714C13.4638 15.9642 11.7681 16.6666 9.99999 16.6666ZM12.1333 7.42496L12.575 7.86663C12.6556 7.94224 12.7013 8.0478 12.7013 8.15829C12.7013 8.26878 12.6556 8.37435 12.575 8.44996L11.0333 9.99996L12.575 11.55C12.6556 11.6256 12.7013 11.7311 12.7013 11.8416C12.7013 11.9521 12.6556 12.0577 12.575 12.1333L12.1333 12.575C12.0577 12.6555 11.9521 12.7012 11.8417 12.7012C11.7312 12.7012 11.6256 12.6555 11.55 12.575L9.99999 11.0333L8.44999 12.575C8.37438 12.6555 8.26881 12.7012 8.15832 12.7012C8.04784 12.7012 7.94227 12.6555 7.86666 12.575L7.42499 12.1333C7.34443 12.0577 7.29872 11.9521 7.29872 11.8416C7.29872 11.7311 7.34443 11.6256 7.42499 11.55L8.96666 9.99996L7.42499 8.44996C7.34443 8.37435 7.29872 8.26878 7.29872 8.15829C7.29872 8.0478 7.34443 7.94224 7.42499 7.86663L7.86666 7.42496C7.94227 7.3444 8.04784 7.29869 8.15832 7.29869C8.26881 7.29869 8.37438 7.3444 8.44999 7.42496L9.99999 8.96663L11.55 7.42496C11.6256 7.3444 11.7312 7.29869 11.8417 7.29869C11.9521 7.29869 12.0577 7.3444 12.1333 7.42496Z" fill="white"/>
</svg>
