<svg width="24" height="24" viewBox="0 0 24 24" fill="none" xmlns="http://www.w3.org/2000/svg">
<path fill-rule="evenodd" clip-rule="evenodd" d="M5.24248 4.57454H11.9702C12.3836 4.57454 12.7177 4.24041 12.7177 3.82703C12.7177 3.41366 12.3836 3.07953 11.9702 3.07953H5.24248C4.00608 3.07953 2.99992 4.08568 2.99992 5.32209V18.7775C2.99992 20.0139 4.00608 21.0201 5.24248 21.0201H11.9702C12.3836 21.0201 12.7177 20.6859 12.7177 20.2725C12.7177 19.8592 12.3836 19.525 11.9702 19.525H5.24248C4.82988 19.525 4.49498 19.1902 4.49498 18.7775V5.32205C4.49498 4.90945 4.82985 4.57454 5.24248 4.57454ZM16.2319 17.0673L20.7768 12.5821C20.9196 12.4408 20.9996 12.2502 20.9996 12.0499C20.9996 11.8496 20.9189 11.6582 20.7768 11.5177L16.2319 7.03255C16.0869 6.88901 15.897 6.81725 15.7071 6.81725C15.5143 6.81725 15.3214 6.89199 15.1749 7.04C14.8856 7.33378 14.8879 7.80696 15.1824 8.097L18.4304 11.3024H9.72692C9.31355 11.3024 8.97942 11.6365 8.97942 12.0499C8.97942 12.4633 9.31355 12.7974 9.72692 12.7974H18.4304L15.1824 16.0028C14.8878 16.2928 14.8848 16.766 15.1749 17.0598C15.4649 17.3536 15.9388 17.3573 16.2319 17.0673Z" fill="white"/>
<path d="M20.7768 12.5821L20.8706 12.6769L20.8705 12.677L20.7768 12.5821ZM16.2319 17.0673L16.1381 16.9725L16.1382 16.9724L16.2319 17.0673ZM20.7768 11.5177L20.8705 11.4228L20.8706 11.4229L20.7768 11.5177ZM16.2319 7.03255L16.1382 7.12745L16.1381 7.12731L16.2319 7.03255ZM15.1749 7.04L15.0799 6.94645L15.0801 6.94621L15.1749 7.04ZM15.1824 8.097L15.2759 8.002L15.276 8.0021L15.1824 8.097ZM18.4304 11.3024L18.524 11.2075L18.7553 11.4357H18.4304V11.3024ZM18.4304 12.7974V12.6641H18.7553L18.524 12.8923L18.4304 12.7974ZM15.1824 16.0028L15.276 16.0977L15.2759 16.0978L15.1824 16.0028ZM15.1749 17.0598L15.2698 16.9661L15.1749 17.0598ZM11.9702 4.70788H5.24248V4.44121H11.9702V4.70788ZM12.8511 3.82703C12.8511 4.31405 12.4572 4.70788 11.9702 4.70788V4.44121C12.31 4.44121 12.5844 4.16677 12.5844 3.82703H12.8511ZM11.9702 2.94619C12.4572 2.94619 12.8511 3.34002 12.8511 3.82703H12.5844C12.5844 3.4873 12.31 3.21286 11.9702 3.21286V2.94619ZM5.24248 2.94619H11.9702V3.21286H5.24248V2.94619ZM2.86659 5.32209C2.86659 4.01204 3.93244 2.94619 5.24248 2.94619V3.21286C4.07972 3.21286 3.13326 4.15932 3.13326 5.32209H2.86659ZM2.86659 18.7775V5.32209H3.13326V18.7775H2.86659ZM5.24248 21.1534C3.93244 21.1534 2.86659 20.0876 2.86659 18.7775H3.13326C3.13326 19.9403 4.07972 20.8868 5.24248 20.8868V21.1534ZM11.9702 21.1534H5.24248V20.8868H11.9702V21.1534ZM12.8511 20.2725C12.8511 20.7595 12.4573 21.1534 11.9702 21.1534V20.8868C12.31 20.8868 12.5844 20.6123 12.5844 20.2725H12.8511ZM11.9702 19.3917C12.4572 19.3917 12.8511 19.7855 12.8511 20.2725H12.5844C12.5844 19.9328 12.31 19.6584 11.9702 19.6584V19.3917ZM5.24248 19.3917H11.9702V19.6584H5.24248V19.3917ZM4.62831 18.7775C4.62831 19.1165 4.90351 19.3917 5.24248 19.3917V19.6584C4.75625 19.6584 4.36164 19.2638 4.36164 18.7775H4.62831ZM4.62831 5.32205V18.7775H4.36164V5.32205H4.62831ZM5.24248 4.70788C4.90349 4.70788 4.62831 4.98308 4.62831 5.32205H4.36164C4.36164 4.83582 4.7562 4.44121 5.24248 4.44121V4.70788ZM20.8705 12.677L16.3255 17.1622L16.1382 16.9724L20.6832 12.4872L20.8705 12.677ZM21.1329 12.0499C21.1329 12.2861 21.0385 12.5107 20.8706 12.6769L20.6831 12.4873C20.8007 12.3709 20.8663 12.2143 20.8663 12.0499H21.1329ZM20.8706 11.4229C21.0377 11.5883 21.1329 11.8137 21.1329 12.0499H20.8663C20.8663 11.8856 20.8 11.7282 20.6831 11.6125L20.8706 11.4229ZM16.3255 6.93765L20.8705 11.4228L20.6832 11.6126L16.1382 7.12745L16.3255 6.93765ZM15.7071 6.68392C15.9306 6.68392 16.1546 6.76844 16.3257 6.93779L16.1381 7.12731C16.0191 7.00957 15.8635 6.95058 15.7071 6.95058V6.68392ZM15.0801 6.94621C15.2525 6.77209 15.4798 6.68392 15.7071 6.68392V6.95058C15.5487 6.95058 15.3903 7.0119 15.2697 7.1338L15.0801 6.94621ZM15.0888 8.192C14.7416 7.85005 14.7392 7.29246 15.0799 6.94645L15.2699 7.13356C15.0321 7.3751 15.0341 7.76386 15.2759 8.002L15.0888 8.192ZM18.3367 11.3973L15.0887 8.1919L15.276 8.0021L18.524 11.2075L18.3367 11.3973ZM9.72692 11.169H18.4304V11.4357H9.72692V11.169ZM8.84608 12.0499C8.84608 11.5629 9.2399 11.169 9.72692 11.169V11.4357C9.38719 11.4357 9.11275 11.7102 9.11275 12.0499H8.84608ZM9.72692 12.9308C9.23991 12.9308 8.84608 12.5369 8.84608 12.0499H9.11275C9.11275 12.3897 9.38719 12.6641 9.72692 12.6641V12.9308ZM18.4304 12.9308H9.72692V12.6641H18.4304V12.9308ZM15.0887 15.9079L18.3367 12.7025L18.524 12.8923L15.276 16.0977L15.0887 15.9079ZM15.08 17.1535C14.7382 16.8073 14.7417 16.2496 15.0888 15.9078L15.2759 16.0978C15.0339 16.3361 15.0315 16.7248 15.2698 16.9661L15.08 17.1535ZM16.3257 17.162C15.98 17.5042 15.4216 17.4994 15.08 17.1535L15.2698 16.9661C15.5083 17.2077 15.8977 17.2104 16.1381 16.9725L16.3257 17.162Z" fill="white"/>
</svg>
