<svg width="24" height="24" viewBox="0 0 24 24" fill="none" xmlns="http://www.w3.org/2000/svg">
<path d="M12.72 15.78C12.5795 15.9207 12.3888 15.9998 12.19 16H11.81C11.6116 15.9977 11.4217 15.9189 11.28 15.78L6.14997 10.64C6.05532 10.5461 6.00208 10.4183 6.00208 10.285C6.00208 10.1517 6.05532 10.0239 6.14997 9.93L6.85997 9.22C6.95214 9.12593 7.07828 9.07293 7.20997 9.07293C7.34166 9.07293 7.46781 9.12593 7.55997 9.22L12 13.67L16.44 9.22C16.5339 9.12534 16.6617 9.0721 16.795 9.0721C16.9283 9.0721 17.0561 9.12534 17.15 9.22L17.85 9.93C17.9446 10.0239 17.9979 10.1517 17.9979 10.285C17.9979 10.4183 17.9446 10.5461 17.85 10.64L12.72 15.78Z" fill="#333333"/>
</svg>
