<svg width="24" height="24" viewBox="0 0 24 24" fill="none" xmlns="http://www.w3.org/2000/svg">
<path fill-rule="evenodd" clip-rule="evenodd" d="M20.21 14.0741C19.725 13.6707 19.4581 13.0617 19.49 12.4309V12V11.5691C19.4581 10.9383 19.725 10.3293 20.21 9.92587L21.01 9.26455C21.3862 8.95336 21.4834 8.41563 21.24 7.99202L20.08 5.98803C19.9025 5.67987 19.5751 5.48918 19.22 5.48703C19.0997 5.48502 18.9803 5.50894 18.87 5.55717L17.87 5.91789C17.647 6.00535 17.4095 6.04955 17.17 6.04815C16.7868 6.04715 16.4119 5.93586 16.09 5.72751C15.8549 5.56478 15.6075 5.42072 15.35 5.29665C14.7873 5.0075 14.3942 4.46873 14.29 3.84376L14.12 2.84176C14.0408 2.35173 13.6154 1.9937 13.12 2.00008H10.82C10.3246 1.9937 9.89923 2.35173 9.82 2.84176L9.65 3.84376C9.55449 4.46084 9.17735 4.99804 8.63 5.29665C8.3725 5.42072 8.12508 5.56478 7.89 5.72751C7.5681 5.93586 7.19323 6.04715 6.81 6.04815C6.57054 6.04955 6.33299 6.00535 6.11 5.91789L5.11 5.55717C4.9997 5.50894 4.88034 5.48502 4.76 5.48703C4.40489 5.48918 4.07756 5.67987 3.9 5.98803L2.76 7.99202C2.51893 8.41797 2.62042 8.95612 3 9.26455L3.8 9.92587C4.28505 10.3293 4.55188 10.9383 4.52 11.5691V12V12.4309C4.55188 13.0617 4.28505 13.6707 3.8 14.0741L3 14.7354C2.62042 15.0439 2.51893 15.582 2.76 16.008L3.92 18.012C4.09756 18.3201 4.42489 18.5108 4.78 18.513C4.90034 18.515 5.0197 18.4911 5.13 18.4428L6.13 18.0821C6.35299 17.9947 6.59054 17.9504 6.83 17.9519C7.21323 17.9528 7.5881 18.0641 7.91 18.2725C8.14508 18.4352 8.3925 18.5793 8.65 18.7034C9.2127 18.9925 9.60578 19.5313 9.71 20.1562L9.88 21.1582C9.95923 21.6483 10.3846 22.0063 10.88 21.9999H13.18C13.6754 22.0063 14.1008 21.6483 14.18 21.1582L14.35 20.1562C14.4542 19.5313 14.8473 18.9925 15.41 18.7034C15.6675 18.5793 15.9149 18.4352 16.15 18.2725C16.4719 18.0641 16.8468 17.9528 17.23 17.9519C17.4695 17.9504 17.707 17.9947 17.93 18.0821L18.93 18.4428C19.0403 18.4911 19.1597 18.515 19.28 18.513C19.6351 18.5108 19.9625 18.3201 20.14 18.012L21.3 16.008C21.5281 15.5679 21.4005 15.0268 21 14.7354L20.21 14.0741ZM12 17.511C8.96244 17.511 6.5 15.0436 6.5 12C6.5 8.95637 8.96244 6.48902 12 6.48902C15.0376 6.48902 17.5 8.95637 17.5 12C17.5 13.4616 16.9205 14.8633 15.8891 15.8968C14.8576 16.9304 13.4587 17.511 12 17.511ZM10 12C10 10.8932 10.8954 9.99601 12 9.99601C13.1046 9.99601 14 10.8932 14 12C14 13.1068 13.1046 14.004 12 14.004C10.8954 14.004 10 13.1068 10 12Z" fill="white"/>
</svg>
